<svg width="242" height="130" viewBox="0 0 242 130" fill="none" xmlns="http://www.w3.org/2000/svg">
<g filter="url(#filter0_d_6_327)">
<path fill-rule="evenodd" clip-rule="evenodd" d="M63.0391 0C62.9959 0.000211501 62.9527 0.000421832 62.9182 0.000562833C60.4782 1.5355 58.0393 3.05908 55.6084 4.58231C55.1538 4.8493 53.4055 5.85048 53.1568 6.18267C52.3507 10.9657 51.5325 15.7708 50.7349 20.5537C49.9373 25.3366 49.1189 30.1415 48.3194 34.9354C51.7633 34.781 55.9591 35.6181 57.3999 32.3004C58.2862 30.2544 59.0074 24.222 59.4278 21.7026C60.6407 14.4648 61.8262 7.238 63.0391 0Z" fill="#ED3237"/>
<mask id="mask0_6_327" style="mask-type:luminance" maskUnits="userSpaceOnUse" x="48" y="0" width="16" height="35">
<path d="M63.0391 0C62.9959 0.000211501 62.9527 0.000421832 62.9182 0.000562833C60.4782 1.5355 58.0393 3.05908 55.6084 4.58231C55.1538 4.8493 53.4055 5.85048 53.1568 6.18267C52.3507 10.9657 51.5325 15.7708 50.7349 20.5537C49.9373 25.3366 49.1189 30.1415 48.3194 34.9354C51.7633 34.781 55.9591 35.6181 57.3999 32.3004C58.2862 30.2544 59.0074 24.222 59.4278 21.7026C60.6407 14.4648 61.8262 7.238 63.0391 0Z" fill="white"/>
</mask>
<g mask="url(#mask0_6_327)">
<path d="M136.922 23.1411C129.813 61.866 91.3395 93.2594 50.9883 93.2594C10.6377 93.2594 -16.3102 61.866 -9.20112 23.1411C-2.0919 -15.5843 36.3822 -46.9772 76.7329 -46.9772C117.084 -46.9772 144.031 -15.5843 136.922 23.1411Z" fill="url(#paint0_radial_6_327)"/>
</g>
<path fill-rule="evenodd" clip-rule="evenodd" d="M4 44.343C9.33267 44.3282 14.6914 44.3134 20.0326 44.2987C25.3826 44.284 30.7412 44.269 36.0998 44.2543C43.4095 44.234 42.9524 44.9087 48.7769 40.2996C49.8203 39.4685 56.0093 34.359 56.8212 33.2741C57.1249 32.8645 57.5076 32.3332 57.5716 31.847C51.9424 36.1827 50.7146 34.7291 44.0607 34.7501C40.0493 34.7628 36.0379 34.7755 32.0438 34.7881C28.0411 34.8008 24.0383 34.8134 20.0355 34.8261C13.8321 34.8457 12.037 34.8747 8.03099 39.5592C7.37792 40.3229 4.28646 43.8352 4 44.343Z" fill="#FEFEFE"/>
<path fill-rule="evenodd" clip-rule="evenodd" d="M33.9904 110.495C34.6033 110.363 37.1878 108.717 37.8666 108.319C42.7206 105.369 44.8459 104.739 45.9812 97.9773C47.5122 88.807 49.0571 79.6587 50.5825 70.5212C52.1063 61.3948 53.6437 52.2902 55.1722 43.1855C55.6858 40.1027 55.6929 36.9331 58.8153 35.1673C58.8722 35.1341 59.0051 35.0563 59.043 35.0341C59.1413 34.9565 59.2481 34.8789 59.3567 34.7902C57.4724 35.1716 56.6149 36.2124 55.5427 37.0109C54.4169 37.8757 53.366 38.8175 52.2664 39.7373C50.2563 41.4106 47.7682 43.2615 45.9615 45.4746C44.7412 46.9572 44.5517 47.9845 44.2143 49.9946C42.5105 60.0342 40.8116 70.0958 39.1109 80.1682C37.4066 90.2626 35.7003 100.368 33.9904 110.495Z" fill="#ED3237"/>
<path fill-rule="evenodd" clip-rule="evenodd" d="M92.0996 34.4987C92.1045 34.4655 92.1093 34.4324 92.1331 34.3881C88.4537 34.3223 84.7369 34.3341 81.0273 34.3569C77.3176 34.3797 73.5888 34.4136 69.9155 34.4253C67.3336 34.4335 61.2234 34.1768 59.0221 34.7691C55.492 35.73 55.8646 39.8924 55.0854 43.1857C59.9494 43.1721 64.822 43.1585 69.686 43.1448C74.55 43.1312 79.4314 43.1175 84.304 43.1037C84.6807 42.9589 84.5235 43.0258 84.8443 42.671C85.0004 42.4936 85.1668 42.3052 85.3229 42.1277C85.6454 41.762 85.9368 41.4294 86.297 41.0413C87.0621 40.1986 91.7434 34.7432 92.0996 34.4987Z" fill="#ED3237"/>
</g>
<g filter="url(#filter1_d_6_327)">
<path d="M60.7615 57.8355H58.7598L60.2542 47.2119H62.2558L60.7615 57.8355ZM72.7477 52.509L72.1431 56.8069C71.5437 57.2036 70.922 57.4951 70.278 57.6812C69.6397 57.8624 68.9696 57.953 68.2678 57.953C67.393 57.953 66.6187 57.8183 65.9449 57.5489C65.276 57.2795 64.7233 56.9049 64.2867 56.4249C63.855 55.9449 63.5501 55.3718 63.372 54.7057C63.1939 54.0396 63.1603 53.3123 63.2712 52.5237C63.3835 51.7253 63.6175 50.9931 63.9731 50.327C64.3287 49.6609 64.78 49.0878 65.327 48.6078C65.8788 48.1278 66.5168 47.7556 67.241 47.4911C67.9652 47.2266 68.7548 47.0944 69.6098 47.0944C70.0448 47.0944 70.4452 47.1287 70.8112 47.1972C71.1821 47.2658 71.5196 47.3613 71.8236 47.4838C72.1333 47.6013 72.4095 47.7458 72.6522 47.9172C72.895 48.0887 73.1131 48.2772 73.3066 48.4829L72.6097 49.3793C72.5008 49.5213 72.3722 49.6095 72.2241 49.6437C72.0766 49.6731 71.9261 49.6364 71.7725 49.5335C71.6225 49.4405 71.4725 49.3474 71.3225 49.2544C71.1725 49.1613 71.001 49.0805 70.808 49.0119C70.6199 48.9433 70.403 48.887 70.1571 48.8429C69.9162 48.7989 69.6327 48.7768 69.3065 48.7768C68.7776 48.7768 68.2858 48.865 67.831 49.0413C67.3812 49.2176 66.9825 49.4699 66.6348 49.798C66.2872 50.1262 65.9994 50.5205 65.7716 50.9809C65.5437 51.4413 65.3898 51.9555 65.3099 52.5237C65.2245 53.131 65.2345 53.6747 65.34 54.1547C65.451 54.6298 65.6413 55.0339 65.9108 55.3669C66.1859 55.6951 66.5359 55.9473 66.9608 56.1236C67.3865 56.2951 67.8761 56.3808 68.4296 56.3808C68.825 56.3808 69.1842 56.3392 69.5073 56.2559C69.8304 56.1726 70.1502 56.06 70.4667 55.9179L70.7375 53.9931H69.3882C69.2597 53.9931 69.1632 53.9588 69.0987 53.8902C69.0399 53.8167 69.0177 53.7286 69.0321 53.6257L69.1892 52.509H72.7477ZM77.9429 52.2666C78.3185 52.2666 78.6512 52.22 78.9411 52.127C79.2359 52.0339 79.4836 51.9066 79.6843 51.7449C79.8906 51.5784 80.054 51.3825 80.1747 51.1572C80.2954 50.9319 80.3746 50.6845 80.4125 50.4152C80.4883 49.8764 80.3661 49.4625 80.046 49.1735C79.7308 48.8846 79.205 48.7401 78.4686 48.7401H77.1935L76.6974 52.2666H77.9429ZM82.2897 57.8355H80.4882C80.1472 57.8355 79.9187 57.7032 79.8026 57.4387L78.0274 54.0371C77.9613 53.9098 77.8802 53.8192 77.7839 53.7653C77.6927 53.7114 77.5482 53.6845 77.3505 53.6845H76.498L75.9141 57.8355H73.9198L75.4142 47.2119H78.6835C79.41 47.2119 80.0221 47.2879 80.5197 47.4397C81.0229 47.5866 81.4211 47.7948 81.7144 48.0642C82.0126 48.3336 82.2142 48.6568 82.3193 49.034C82.4251 49.4062 82.4463 49.8176 82.3829 50.2682C82.3326 50.6258 82.2307 50.9637 82.0772 51.2821C81.9287 51.6004 81.7348 51.8894 81.4956 52.149C81.2614 52.4086 80.9823 52.6363 80.6582 52.8323C80.339 53.0282 79.9837 53.1825 79.5923 53.2951C79.7104 53.3686 79.8166 53.4567 79.9109 53.5596C80.0059 53.6576 80.0882 53.7751 80.1578 53.9122L82.2897 57.8355ZM86.7222 48.7842L86.3078 51.7302H90.059L89.8451 53.251H86.0938L85.6712 56.2559H90.4306L90.2084 57.8355H83.4473L84.9417 47.2119H91.7028L91.4816 48.7842H86.7222ZM96.5918 54.0592C96.5077 54.6567 96.3578 55.1955 96.142 55.6755C95.9262 56.1555 95.6463 56.5645 95.3022 56.9024C94.9631 57.2404 94.5608 57.5 94.0955 57.6812C93.6301 57.8624 93.1058 57.953 92.5226 57.953C92.2558 57.953 91.9962 57.9359 91.744 57.9016C91.4912 57.8722 91.2287 57.8232 90.9566 57.7546C90.999 57.5587 91.0439 57.3628 91.0912 57.1669C91.1385 56.971 91.1834 56.7751 91.2258 56.5792C91.2558 56.4714 91.3098 56.3857 91.388 56.322C91.4718 56.2534 91.5804 56.2192 91.7138 56.2192C91.7978 56.2192 91.9042 56.2363 92.0328 56.2706C92.1663 56.3049 92.3369 56.322 92.5445 56.322C92.8262 56.322 93.0813 56.2828 93.3098 56.2045C93.539 56.1212 93.7376 55.9914 93.9057 55.8151C94.0788 55.6388 94.222 55.411 94.3355 55.1318C94.4495 54.8477 94.5348 54.5049 94.5913 54.1033L95.5607 47.2119H97.5549L96.5918 54.0592ZM104.416 53.8241L103.608 50.2903C103.566 50.1335 103.525 49.9474 103.486 49.7319C103.447 49.5164 103.411 49.2837 103.377 49.034C103.277 49.2837 103.178 49.5188 103.078 49.7392C102.978 49.9548 102.885 50.1433 102.798 50.305L101.005 53.8241H104.416ZM107.373 57.8355H105.831C105.658 57.8355 105.523 57.7938 105.426 57.7106C105.329 57.6224 105.263 57.5146 105.227 57.3873L104.731 55.22H100.29L99.1846 57.3873C99.1292 57.5 99.0381 57.6028 98.9114 57.6959C98.7846 57.7889 98.6372 57.8355 98.4692 57.8355H96.9123L102.625 47.2119H104.656L107.373 57.8355Z" fill="white"/>
</g>
<g filter="url(#filter2_d_6_327)">
<path d="M58.5516 59.6922H60.1121L62.3261 68.545H62.4526L67.5769 59.6922H69.1374L67.3844 70.3572H66.1613L67.4932 62.2543H67.3878L62.6819 70.3572H61.501L59.459 62.2543H59.3535L58.0216 70.3572H56.7986L58.5516 59.6922ZM77.2415 59.6922L75.4885 70.3572H74.1811L75.9341 59.6922H77.2415ZM92.5996 59.6922L90.8466 70.3572H89.5813L85.0744 61.9835H84.969L83.5926 70.3572H82.2852L84.0382 59.6922H85.3034L89.828 68.0867H89.9335L91.3133 59.6922H92.5996ZM100.698 59.6922L98.9454 70.3572H97.638L99.391 59.6922H100.698ZM112.961 62.3585C112.985 61.8308 112.796 61.4211 112.394 61.1295C111.992 60.8379 111.464 60.6921 110.81 60.6921C110.332 60.6921 109.901 60.7684 109.518 60.9212C109.138 61.0739 108.826 61.284 108.581 61.5513C108.341 61.8186 108.192 62.1224 108.136 62.4626C108.089 62.7473 108.118 62.992 108.221 63.1969C108.329 63.3982 108.48 63.5666 108.676 63.702C108.872 63.8339 109.083 63.9433 109.307 64.0301C109.533 64.1134 109.741 64.1811 109.933 64.2332L110.981 64.5248C111.251 64.5977 111.547 64.6984 111.87 64.8268C112.197 64.9553 112.5 65.1306 112.78 65.3528C113.064 65.5715 113.281 65.8527 113.432 66.1964C113.583 66.5401 113.617 66.9619 113.535 67.4618C113.441 68.0381 113.202 68.5589 112.82 69.0241C112.441 69.4893 111.938 69.859 111.309 70.1333C110.684 70.4076 109.957 70.5447 109.127 70.5447C108.354 70.5447 107.705 70.4214 107.18 70.1749C106.658 69.9285 106.271 69.5848 106.021 69.1439C105.773 68.703 105.676 68.1909 105.73 67.6076H107.08C107.049 68.0104 107.131 68.3436 107.327 68.6075C107.526 68.8679 107.8 69.0623 108.148 69.1907C108.5 69.3157 108.89 69.3782 109.319 69.3782C109.818 69.3782 110.279 69.2983 110.703 69.1387C111.127 68.9755 111.478 68.7498 111.758 68.4617C112.038 68.1701 112.21 67.8298 112.273 67.441C112.332 67.0869 112.279 66.7987 112.115 66.5766C111.951 66.3544 111.717 66.1738 111.413 66.035C111.109 65.8961 110.776 65.7746 110.414 65.6704L109.147 65.2955C108.343 65.056 107.731 64.714 107.312 64.2696C106.893 63.8252 106.743 63.2437 106.861 62.5251C106.959 61.928 107.208 61.4072 107.608 60.9628C108.012 60.515 108.512 60.1678 109.108 59.9213C109.707 59.6714 110.352 59.5464 111.041 59.5464C111.737 59.5464 112.335 59.6696 112.836 59.9161C113.337 60.1592 113.711 60.4924 113.958 60.916C114.208 61.3395 114.297 61.8204 114.227 62.3585H112.961ZM120.358 60.8379L120.547 59.6922H128.644L128.456 60.8379H125.061L123.496 70.3572H122.189L123.754 60.8379H120.358ZM133.084 70.3572L134.837 59.6922H141.353L141.165 60.8379H135.956L135.364 64.4415H140.235L140.047 65.5871H135.176L134.58 69.2116H139.873L139.685 70.3572H133.084ZM137.693 58.6091L139.377 56.1928H140.832L138.79 58.6091H137.693ZM146.132 70.3572L147.885 59.6922H151.533C152.377 59.6922 153.046 59.8346 153.54 60.1192C154.035 60.4004 154.372 60.7875 154.551 61.2805C154.73 61.7735 154.768 62.3342 154.665 62.9625C154.562 63.5909 154.34 64.1481 154 64.6341C153.66 65.1202 153.198 65.5021 152.615 65.7798C152.032 66.0541 151.322 66.1912 150.486 66.1912H147.534L147.726 65.0247H150.636C151.212 65.0247 151.69 64.9414 152.068 64.7748C152.451 64.6081 152.746 64.372 152.955 64.0665C153.167 63.7575 153.308 63.3896 153.379 62.9625C153.449 62.5355 153.429 62.1623 153.32 61.8429C153.211 61.5235 152.993 61.277 152.667 61.1035C152.341 60.9264 151.886 60.8379 151.303 60.8379H149.004L147.439 70.3572H146.132ZM152.002 65.5663L153.871 70.3572H152.353L150.525 65.5663H152.002ZM162.864 59.6922L161.111 70.3572H159.803L161.556 59.6922H162.864ZM177.894 65.0247C177.709 66.1495 177.343 67.1216 176.797 67.9409C176.251 68.7602 175.584 69.3921 174.794 69.8365C174.004 70.2808 173.148 70.503 172.227 70.503C171.307 70.503 170.524 70.2808 169.88 69.8365C169.236 69.3921 168.776 68.7602 168.5 67.9409C168.223 67.1216 168.177 66.1495 168.362 65.0247C168.547 63.8999 168.912 62.9278 169.458 62.1085C170.004 61.2892 170.672 60.6573 171.462 60.213C172.252 59.7686 173.107 59.5464 174.028 59.5464C174.949 59.5464 175.731 59.7686 176.375 60.213C177.019 60.6573 177.48 61.2892 177.756 62.1085C178.033 62.9278 178.078 63.8999 177.894 65.0247ZM176.628 65.0247C176.78 64.1012 176.752 63.3219 176.543 62.6865C176.339 62.0512 175.998 61.5704 175.521 61.2441C175.047 60.9177 174.483 60.7545 173.83 60.7545C173.176 60.7545 172.557 60.9177 171.973 61.2441C171.392 61.5704 170.893 62.0512 170.476 62.6865C170.062 63.3219 169.779 64.1012 169.627 65.0247C169.476 65.9482 169.502 66.7276 169.707 67.3629C169.915 67.9982 170.256 68.479 170.73 68.8054C171.207 69.1317 171.772 69.2949 172.426 69.2949C173.08 69.2949 173.697 69.1317 174.278 68.8054C174.862 68.479 175.361 67.9982 175.775 67.3629C176.192 66.7276 176.476 65.9482 176.628 65.0247ZM187.566 70.3572L189.319 59.6922H192.967C193.814 59.6922 194.482 59.8432 194.97 60.1453C195.462 60.4438 195.796 60.8483 195.972 61.3586C196.148 61.869 196.185 62.4383 196.082 63.0667C195.978 63.6951 195.754 64.2662 195.41 64.78C195.069 65.2938 194.604 65.7034 194.016 66.0089C193.429 66.311 192.715 66.462 191.875 66.462H189.261L189.449 65.3163H192.021C192.601 65.3163 193.083 65.2174 193.467 65.0195C193.851 64.8216 194.15 64.5543 194.364 64.2175C194.581 63.8773 194.725 63.4937 194.795 63.0667C194.865 62.6397 194.847 62.2578 194.741 61.921C194.638 61.5843 194.425 61.3204 194.101 61.1295C193.778 60.9351 193.323 60.8379 192.737 60.8379H190.438L188.873 70.3572H187.566ZM196.989 70.3572L198.742 59.6922H205.258L205.07 60.8379H199.861L199.269 64.4415H204.14L203.952 65.5871H199.081L198.485 69.2116H203.778L203.59 70.3572H196.989ZM210.037 70.3572L211.79 59.6922H213.097L211.533 69.2116H216.551L216.363 70.3572H210.037ZM223.006 70.3572H221.635L227.352 59.6922H228.702L230.913 70.3572H229.543L227.792 61.3794H227.708L223.006 70.3572ZM224.197 66.1912H229.721L229.533 67.3369H224.008L224.197 66.1912Z" fill="white"/>
<path d="M58.5516 59.6922L58.5572 59.6583H58.5229L58.5173 59.6922H58.5516ZM60.1121 59.6922L60.1459 59.6794L60.1406 59.6583H60.1176L60.1121 59.6922ZM62.3261 68.545L62.2922 68.5578L62.2975 68.5789H62.3205L62.3261 68.545ZM62.4526 68.545L62.447 68.5789H62.4701L62.4823 68.5578L62.4526 68.545ZM67.5769 59.6922L67.5825 59.6583H67.5595L67.5473 59.6794L67.5769 59.6922ZM69.1374 59.6922H69.1717L69.1773 59.6583H69.143L69.1374 59.6922ZM67.3844 70.3572L67.3788 70.3911H67.4131L67.4187 70.3572H67.3844ZM66.1613 70.3572H66.127L66.1214 70.3911H66.1557L66.1613 70.3572ZM67.4932 62.2543H67.5275L67.5331 62.2204H67.4988L67.4932 62.2543ZM67.3878 62.2543L67.3933 62.2204H67.3704L67.3582 62.2414L67.3878 62.2543ZM62.6819 70.3572L62.6764 70.3911H62.6993L62.7115 70.3701L62.6819 70.3572ZM61.501 70.3572L61.4672 70.3701L61.4725 70.3911H61.4955L61.501 70.3572ZM59.459 62.2543L59.4928 62.2414L59.4875 62.2204H59.4645L59.459 62.2543ZM59.3535 62.2543L59.3591 62.2204H59.3248L59.3192 62.2543H59.3535ZM58.0216 70.3572L58.0161 70.3911H58.0504L58.0559 70.3572H58.0216ZM56.7986 70.3572H56.7643L56.7587 70.3911H56.793L56.7986 70.3572ZM58.546 59.7261H60.1065L60.1176 59.6583H58.5572L58.546 59.7261ZM60.0782 59.7051L62.2922 68.5578L62.3599 68.5322L60.1459 59.6794L60.0782 59.7051ZM62.3205 68.5789H62.447L62.4582 68.5111H62.3317L62.3205 68.5789ZM62.4823 68.5578L67.6066 59.7051L67.5473 59.6794L62.423 68.5322L62.4823 68.5578ZM67.5714 59.7261H69.1318L69.143 59.6583H67.5825L67.5714 59.7261ZM69.1031 59.6922L67.3501 70.3572H67.4187L69.1717 59.6922H69.1031ZM67.3899 70.3233H66.1669L66.1557 70.3911H67.3788L67.3899 70.3233ZM66.1956 70.3572L67.5275 62.2543H67.4589L66.127 70.3572H66.1956ZM67.4988 62.2204H67.3933L67.3822 62.2882H67.4876L67.4988 62.2204ZM67.3582 62.2414L62.6523 70.3443L62.7115 70.3701L67.4174 62.2672L67.3582 62.2414ZM62.6875 70.3233H61.5066L61.4955 70.3911H62.6764L62.6875 70.3233ZM61.5349 70.3443L59.4928 62.2414L59.4251 62.2672L61.4672 70.3701L61.5349 70.3443ZM59.4645 62.2204H59.3591L59.348 62.2882H59.4534L59.4645 62.2204ZM59.3192 62.2543L57.9873 70.3572H58.0559L59.3878 62.2543H59.3192ZM58.0272 70.3233H56.8041L56.793 70.3911H58.0161L58.0272 70.3233ZM56.8329 70.3572L58.5859 59.6922H58.5173L56.7643 70.3572H56.8329ZM77.2415 59.6922H77.2758L77.2814 59.6583H77.2471L77.2415 59.6922ZM75.4885 70.3572L75.4829 70.3911H75.5172L75.5228 70.3572H75.4885ZM74.1811 70.3572H74.1468L74.1412 70.3911H74.1755L74.1811 70.3572ZM75.9341 59.6922L75.9397 59.6583H75.9054L75.8998 59.6922H75.9341ZM77.2072 59.6922L75.4542 70.3572H75.5228L77.2758 59.6922H77.2072ZM75.494 70.3233H74.1866L74.1755 70.3911H75.4829L75.494 70.3233ZM74.2154 70.3572L75.9684 59.6922H75.8998L74.1468 70.3572H74.2154ZM75.9285 59.7261H77.2359L77.2471 59.6583H75.9397L75.9285 59.7261ZM92.5996 59.6922H92.6339L92.6395 59.6583H92.6052L92.5996 59.6922ZM90.8466 70.3572L90.841 70.3911H90.8753L90.8809 70.3572H90.8466ZM89.5813 70.3572L89.55 70.3765L89.5578 70.3911H89.5758L89.5813 70.3572ZM85.0744 61.9835L85.1058 61.9642L85.0979 61.9496H85.08L85.0744 61.9835ZM84.969 61.9835L84.9745 61.9496H84.9402L84.9347 61.9835H84.969ZM83.5926 70.3572L83.587 70.3911H83.6213L83.6269 70.3572H83.5926ZM82.2852 70.3572H82.2509L82.2453 70.3911H82.2796L82.2852 70.3572ZM84.0382 59.6922L84.0437 59.6583H84.0094L84.0039 59.6922H84.0382ZM85.3034 59.6922L85.3348 59.6729L85.3269 59.6583H85.309L85.3034 59.6922ZM89.828 68.0867L89.7967 68.1061L89.8045 68.1206H89.8225L89.828 68.0867ZM89.9335 68.0867L89.9279 68.1206H89.9622L89.9678 68.0867H89.9335ZM91.3133 59.6922L91.3188 59.6583H91.2845L91.279 59.6922H91.3133ZM92.5653 59.6922L90.8123 70.3572H90.8809L92.6339 59.6922H92.5653ZM90.8521 70.3233H89.5869L89.5758 70.3911H90.841L90.8521 70.3233ZM89.6127 70.3379L85.1058 61.9642L85.043 62.0028L89.55 70.3765L89.6127 70.3379ZM85.08 61.9496H84.9745L84.9634 62.0174H85.0688L85.08 61.9496ZM84.9347 61.9835L83.5583 70.3572H83.6269L85.0033 61.9835H84.9347ZM83.5981 70.3233H82.2907L82.2796 70.3911H83.587L83.5981 70.3233ZM82.3195 70.3572L84.0725 59.6922H84.0039L82.2509 70.3572H82.3195ZM84.0326 59.7261H85.2978L85.309 59.6583H84.0437L84.0326 59.7261ZM85.2721 59.7115L89.7967 68.1061L89.8594 68.0674L85.3348 59.6729L85.2721 59.7115ZM89.8225 68.1206H89.9279L89.939 68.0528H89.8336L89.8225 68.1206ZM89.9678 68.0867L91.3476 59.6922H91.279L89.8992 68.0867H89.9678ZM91.3077 59.7261H92.594L92.6052 59.6583H91.3188L91.3077 59.7261ZM100.698 59.6922H100.733L100.738 59.6583H100.704L100.698 59.6922ZM98.9454 70.3572L98.9398 70.3911H98.9741L98.9797 70.3572H98.9454ZM97.638 70.3572H97.6037L97.5981 70.3911H97.6324L97.638 70.3572ZM99.391 59.6922L99.3966 59.6583H99.3623L99.3567 59.6922H99.391ZM100.664 59.6922L98.9111 70.3572H98.9797L100.733 59.6922H100.664ZM98.951 70.3233H97.6436L97.6324 70.3911H98.9398L98.951 70.3233ZM97.6723 70.3572L99.4253 59.6922H99.3567L97.6037 70.3572H97.6723ZM99.3854 59.7261H100.693L100.704 59.6583H99.3966L99.3854 59.7261ZM112.961 62.3585L112.927 62.3624L112.925 62.3923H112.956L112.961 62.3585ZM112.394 61.1295L112.37 61.1578L112.394 61.1295ZM109.518 60.9212L109.509 60.8901L109.509 60.8901L109.518 60.9212ZM108.581 61.5513L108.557 61.5311L108.557 61.5314L108.581 61.5513ZM108.221 63.1969L108.189 63.2156L108.19 63.2161L108.221 63.1969ZM108.676 63.702L108.653 63.7307L108.653 63.7309L108.676 63.702ZM109.307 64.0301L109.29 64.0619L109.291 64.062L109.307 64.0301ZM109.933 64.2332L109.947 64.2005L109.947 64.2004L109.933 64.2332ZM110.981 64.5248L110.967 64.5575L110.967 64.5576L110.981 64.5248ZM111.87 64.8268L111.853 64.8585L111.853 64.8586L111.87 64.8268ZM112.78 65.3528L112.756 65.3804L112.756 65.3806L112.78 65.3528ZM113.432 66.1964L113.465 66.1791L113.432 66.1964ZM112.82 69.0241L112.794 69.0056L112.794 69.0058L112.82 69.0241ZM111.309 70.1333L111.299 70.1027L111.299 70.1027L111.309 70.1333ZM107.18 70.1749L107.161 70.2059L107.161 70.206L107.18 70.1749ZM106.021 69.1439L105.989 69.1636L105.99 69.1637L106.021 69.1439ZM105.73 67.6076L105.736 67.5738H105.699L105.696 67.6101L105.73 67.6076ZM107.08 67.6076L107.114 67.6047L107.117 67.5738H107.085L107.08 67.6076ZM107.327 68.6075L107.297 68.6301L107.298 68.6304L107.327 68.6075ZM108.148 69.1907L108.131 69.2227L108.132 69.2228L108.148 69.1907ZM110.703 69.1387L110.711 69.17L110.711 69.1699L110.703 69.1387ZM111.758 68.4617L111.781 68.4828L111.781 68.4826L111.758 68.4617ZM112.115 66.5766L112.144 66.554L112.115 66.5766ZM111.413 66.035L111.395 66.0661L111.413 66.035ZM110.414 65.6704L110.399 65.703L110.399 65.7031L110.414 65.6704ZM109.147 65.2955L109.132 65.3281L109.132 65.3281L109.147 65.2955ZM107.312 64.2696L107.285 64.2946L107.312 64.2696ZM107.608 60.9628L107.583 60.9429L107.583 60.9429L107.608 60.9628ZM109.108 59.9213L109.117 59.9523L109.117 59.9522L109.108 59.9213ZM112.836 59.9161L112.816 59.9469L112.816 59.947L112.836 59.9161ZM113.958 60.916L113.927 60.9361L113.927 60.9362L113.958 60.916ZM114.227 62.3585L114.221 62.3923H114.256L114.261 62.3574L114.227 62.3585ZM112.996 62.3545C113.02 61.8168 112.827 61.3983 112.417 61.1012L112.37 61.1578C112.764 61.4439 112.95 61.8447 112.927 62.3624L112.996 62.3545ZM112.417 61.1012C112.009 60.8052 111.475 60.6582 110.816 60.6582L110.805 60.7259C111.453 60.7259 111.974 60.8705 112.37 61.1578L112.417 61.1012ZM110.816 60.6582C110.334 60.6582 109.898 60.7351 109.509 60.8901L109.526 60.9523C109.904 60.8017 110.33 60.7259 110.805 60.7259L110.816 60.6582ZM109.509 60.8901C109.124 61.0449 108.806 61.2584 108.557 61.5311L108.606 61.5715C108.845 61.3096 109.151 61.103 109.526 60.9523L109.509 60.8901ZM108.557 61.5314C108.311 61.8047 108.159 62.1155 108.102 62.4626H108.171C108.225 62.1293 108.37 61.8326 108.606 61.5712L108.557 61.5314ZM108.102 62.4626C108.054 62.7528 108.083 63.0043 108.189 63.2156L108.253 63.1782C108.153 62.9797 108.125 62.7417 108.171 62.4626H108.102ZM108.19 63.2161C108.299 63.4214 108.454 63.5929 108.653 63.7307L108.699 63.6733C108.507 63.5403 108.358 63.3751 108.253 63.1776L108.19 63.2161ZM108.653 63.7309C108.851 63.864 109.063 63.9743 109.29 64.0619L109.324 63.9983C109.102 63.9123 108.893 63.8039 108.699 63.6731L108.653 63.7309ZM109.291 64.062C109.517 64.1456 109.726 64.2136 109.919 64.2659L109.947 64.2004C109.756 64.1486 109.549 64.0812 109.324 63.9981L109.291 64.062ZM109.919 64.2659L110.967 64.5575L110.996 64.4921L109.947 64.2005L109.919 64.2659ZM110.967 64.5576C111.235 64.6301 111.53 64.7304 111.853 64.8585L111.888 64.7951C111.563 64.6664 111.266 64.5653 110.996 64.492L110.967 64.5576ZM111.853 64.8586C112.177 64.9859 112.478 65.1598 112.756 65.3804L112.805 65.3252C112.523 65.1014 112.217 64.9246 111.887 64.7951L111.853 64.8586ZM112.756 65.3806C113.036 65.5965 113.251 65.874 113.4 66.2137L113.465 66.1791C113.312 65.8314 113.092 65.5465 112.804 65.3249L112.756 65.3806ZM113.4 66.2137C113.548 66.551 113.582 66.9665 113.501 67.4618H113.57C113.653 66.9573 113.618 66.5292 113.465 66.1791L113.4 66.2137ZM113.501 67.4618C113.407 68.0318 113.172 68.5461 112.794 69.0056L112.846 69.0425C113.233 68.5716 113.474 68.0444 113.57 67.4618H113.501ZM112.794 69.0058C112.42 69.4649 111.923 69.8307 111.299 70.1027L111.319 70.1639C111.952 69.8873 112.462 69.5137 112.846 69.0424L112.794 69.0058ZM111.299 70.1027C110.68 70.3743 109.959 70.5108 109.133 70.5108L109.122 70.5786C109.955 70.5786 110.688 70.4408 111.319 70.1638L111.299 70.1027ZM109.133 70.5108C108.363 70.5108 107.719 70.3881 107.199 70.1439L107.161 70.206C107.691 70.4548 108.345 70.5786 109.122 70.5786L109.133 70.5108ZM107.199 70.144C106.681 69.8996 106.299 69.5595 106.052 69.124L105.99 69.1637C106.243 69.61 106.634 69.9573 107.161 70.2059L107.199 70.144ZM106.052 69.1241C105.807 68.6887 105.712 68.1827 105.765 67.6052L105.696 67.6101C105.641 68.199 105.739 68.7172 105.989 69.1636L106.052 69.1241ZM105.725 67.6415H107.074L107.085 67.5738H105.736L105.725 67.6415ZM107.045 67.6106C107.014 68.0195 107.097 68.36 107.297 68.6301L107.356 68.5849C107.165 68.3273 107.084 68.0012 107.114 67.6047L107.045 67.6106ZM107.298 68.6304C107.501 68.8952 107.779 69.0926 108.131 69.2227L108.165 69.1588C107.821 69.032 107.552 68.8405 107.356 68.5845L107.298 68.6304ZM108.132 69.2228C108.487 69.3491 108.881 69.4121 109.314 69.4121L109.325 69.3443C108.899 69.3443 108.513 69.2823 108.164 69.1586L108.132 69.2228ZM109.314 69.4121C109.816 69.4121 110.282 69.3316 110.711 69.17L110.695 69.1073C110.277 69.2651 109.82 69.3443 109.325 69.3443L109.314 69.4121ZM110.711 69.1699C111.14 69.0049 111.497 68.776 111.781 68.4828L111.734 68.4406C111.46 68.7236 111.114 68.9461 110.695 69.1074L110.711 69.1699ZM111.781 68.4826C112.067 68.1847 112.243 67.837 112.308 67.441H112.239C112.176 67.8226 112.008 68.1554 111.734 68.4407L111.781 68.4826ZM112.308 67.441C112.367 67.0802 112.314 66.7836 112.144 66.554L112.086 66.5991C112.244 66.8139 112.296 67.0935 112.239 67.441H112.308ZM112.144 66.554C111.977 66.3275 111.74 66.1443 111.432 66.0038L111.395 66.0661C111.695 66.2034 111.925 66.3812 112.086 66.5991L112.144 66.554ZM111.432 66.0038C111.127 65.8643 110.792 65.7423 110.428 65.6378L110.399 65.7031C110.76 65.8069 111.092 65.9279 111.395 66.0661L111.432 66.0038ZM110.428 65.6379L109.162 65.2629L109.132 65.3281L110.399 65.703L110.428 65.6379ZM109.162 65.2629C108.361 65.0244 107.754 64.6845 107.339 64.2446L107.285 64.2946C107.708 64.7435 108.324 65.0875 109.132 65.3281L109.162 65.2629ZM107.339 64.2446C106.927 63.8073 106.778 63.2352 106.895 62.5251H106.826C106.707 63.2523 106.859 63.8432 107.285 64.2946L107.339 64.2446ZM106.895 62.5251C106.992 61.9345 107.238 61.4208 107.632 60.9828L107.583 60.9429C107.178 61.3936 106.926 61.9215 106.826 62.5251H106.895ZM107.632 60.9828C108.032 60.5401 108.526 60.1965 109.117 59.9523L109.099 59.8904C108.497 60.1391 107.992 60.4899 107.583 60.9429L107.632 60.9828ZM109.117 59.9522C109.711 59.7045 110.351 59.5803 111.035 59.5803L111.046 59.5125C110.353 59.5125 109.704 59.6383 109.098 59.8905L109.117 59.9522ZM111.035 59.5803C111.727 59.5803 112.32 59.7028 112.816 59.9469L112.855 59.8854C112.349 59.6365 111.746 59.5125 111.046 59.5125L111.035 59.5803ZM112.816 59.947C113.313 60.1879 113.683 60.5177 113.927 60.9361L113.988 60.8959C113.739 60.4672 113.36 60.1304 112.855 59.8853L112.816 59.947ZM113.927 60.9362C114.174 61.3541 114.262 61.8282 114.192 62.3596L114.261 62.3574C114.333 61.8125 114.242 61.3249 113.988 60.8957L113.927 60.9362ZM114.232 62.3246H112.967L112.956 62.3923H114.221L114.232 62.3246ZM120.358 60.8379H120.324L120.319 60.8718H120.353L120.358 60.8379ZM120.547 59.6922L120.552 59.6583H120.518L120.512 59.6922H120.547ZM128.644 59.6922H128.679L128.684 59.6583H128.65L128.644 59.6922ZM128.456 60.8379L128.45 60.8718H128.485L128.49 60.8379H128.456ZM125.061 60.8379L125.067 60.804H125.032L125.027 60.8379H125.061ZM123.496 70.3572L123.491 70.3911H123.525L123.531 70.3572H123.496ZM122.189 70.3572H122.155L122.149 70.3911H122.183L122.189 70.3572ZM123.754 60.8379H123.788L123.793 60.804H123.759L123.754 60.8379ZM120.393 60.8379L120.581 59.6922H120.512L120.324 60.8379H120.393ZM120.541 59.7261H128.639L128.65 59.6583H120.552L120.541 59.7261ZM128.61 59.6922L128.422 60.8379H128.49L128.679 59.6922H128.61ZM128.462 60.804H125.067L125.055 60.8718H128.45L128.462 60.804ZM125.027 60.8379L123.462 70.3572H123.531L125.095 60.8379H125.027ZM123.502 70.3233H122.194L122.183 70.3911H123.491L123.502 70.3233ZM122.223 70.3572L123.788 60.8379H123.719L122.155 70.3572H122.223ZM123.759 60.804H120.364L120.353 60.8718H123.748L123.759 60.804ZM133.084 70.3572H133.05L133.044 70.3911H133.079L133.084 70.3572ZM134.837 59.6922L134.843 59.6583H134.809L134.803 59.6922H134.837ZM141.353 59.6922H141.388L141.393 59.6583H141.359L141.353 59.6922ZM141.165 60.8379L141.159 60.8718H141.194L141.199 60.8379H141.165ZM135.956 60.8379L135.962 60.804H135.928L135.922 60.8379H135.956ZM135.364 64.4415H135.33L135.324 64.4754H135.359L135.364 64.4415ZM140.235 64.4415H140.27L140.275 64.4076H140.241L140.235 64.4415ZM140.047 65.5871L140.041 65.621H140.076L140.081 65.5871H140.047ZM135.176 65.5871L135.181 65.5532H135.147L135.142 65.5871H135.176ZM134.58 69.2116H134.546L134.54 69.2454H134.575L134.58 69.2116ZM139.873 69.2116H139.907L139.913 69.1777H139.879L139.873 69.2116ZM139.685 70.3572L139.679 70.3911H139.713L139.719 70.3572H139.685ZM137.693 58.6091L137.666 58.5933L137.631 58.6429H137.688L137.693 58.6091ZM139.377 56.1928L139.383 56.1589H139.362L139.349 56.177L139.377 56.1928ZM140.832 56.1928L140.857 56.2117L140.902 56.1589H140.838L140.832 56.1928ZM138.79 58.6091L138.784 58.6429H138.803L138.815 58.628L138.79 58.6091ZM133.119 70.3572L134.872 59.6922H134.803L133.05 70.3572H133.119ZM134.832 59.7261H141.348L141.359 59.6583H134.843L134.832 59.7261ZM141.319 59.6922L141.131 60.8379H141.199L141.388 59.6922H141.319ZM141.171 60.804H135.962L135.951 60.8718H141.159L141.171 60.804ZM135.922 60.8379L135.33 64.4415H135.398L135.991 60.8379H135.922ZM135.359 64.4754H140.23L140.241 64.4076H135.37L135.359 64.4754ZM140.201 64.4415L140.013 65.5871H140.081L140.27 64.4415H140.201ZM140.053 65.5532H135.181L135.17 65.621H140.041L140.053 65.5532ZM135.142 65.5871L134.546 69.2116H134.614L135.21 65.5871H135.142ZM134.575 69.2454H139.867L139.879 69.1777H134.586L134.575 69.2454ZM139.839 69.2116L139.65 70.3572H139.719L139.907 69.2116H139.839ZM139.69 70.3233H133.09L133.079 70.3911H139.679L139.69 70.3233ZM137.721 58.6248L139.405 56.2085L139.349 56.177L137.666 58.5933L137.721 58.6248ZM139.371 56.2266H140.826L140.838 56.1589H139.383L139.371 56.2266ZM140.807 56.1739L138.765 58.5901L138.815 58.628L140.857 56.2117L140.807 56.1739ZM138.796 58.5752H137.699L137.688 58.6429H138.784L138.796 58.5752ZM146.132 70.3572H146.098L146.092 70.3911H146.127L146.132 70.3572ZM147.885 59.6922L147.891 59.6583H147.856L147.851 59.6922H147.885ZM153.54 60.1192L153.519 60.1491L153.519 60.1492L153.54 60.1192ZM154.551 61.2805L154.518 61.2962L154.551 61.2805ZM154 64.6341L153.972 64.6183L154 64.6341ZM152.615 65.7798L152.626 65.8099L152.626 65.8098L152.615 65.7798ZM147.534 66.1912H147.5L147.494 66.2251H147.528L147.534 66.1912ZM147.726 65.0247L147.731 64.9908H147.697L147.691 65.0247H147.726ZM152.068 64.7748L152.059 64.7441L152.059 64.7442L152.068 64.7748ZM152.955 64.0665L152.927 64.051L152.927 64.0511L152.955 64.0665ZM152.667 61.1035L152.646 61.1337L152.646 61.1338L152.667 61.1035ZM149.004 60.8379L149.01 60.804H148.975L148.97 60.8379H149.004ZM147.439 70.3572L147.434 70.3911H147.468L147.474 70.3572H147.439ZM152.002 65.5663L152.034 65.55L152.027 65.5324H152.007L152.002 65.5663ZM153.871 70.3572L153.866 70.3911H153.923L153.904 70.3409L153.871 70.3572ZM152.353 70.3572L152.32 70.3733L152.327 70.3911H152.347L152.353 70.3572ZM150.525 65.5663L150.531 65.5324H150.474L150.493 65.5824L150.525 65.5663ZM146.166 70.3572L147.919 59.6922H147.851L146.098 70.3572H146.166ZM147.88 59.7261H151.528L151.539 59.6583H147.891L147.88 59.7261ZM151.528 59.7261C152.368 59.7261 153.031 59.8679 153.519 60.1491L153.561 60.0893C153.061 59.8012 152.386 59.6583 151.539 59.6583L151.528 59.7261ZM153.519 60.1492C154.009 60.4275 154.342 60.8098 154.518 61.2962L154.584 61.2648C154.403 60.7652 154.061 60.3734 153.561 60.0892L153.519 60.1492ZM154.518 61.2962C154.695 61.7837 154.733 62.3389 154.631 62.9625H154.699C154.803 62.3294 154.765 61.7633 154.584 61.2648L154.518 61.2962ZM154.631 62.9625C154.528 63.5862 154.308 64.1378 153.972 64.6183L154.028 64.65C154.372 64.1584 154.595 63.5956 154.699 62.9625H154.631ZM153.972 64.6183C153.637 65.0977 153.181 65.4749 152.604 65.7498L152.626 65.8098C153.215 65.5292 153.683 65.1426 154.028 64.65L153.972 64.6183ZM152.604 65.7497C152.028 66.0207 151.325 66.1573 150.492 66.1573L150.48 66.2251C151.32 66.2251 152.036 66.0874 152.626 65.8099L152.604 65.7497ZM150.492 66.1573H147.539L147.528 66.2251H150.48L150.492 66.1573ZM147.568 66.1912L147.76 65.0247H147.691L147.5 66.1912H147.568ZM147.72 65.0586H150.63L150.641 64.9908H147.731L147.72 65.0586ZM150.63 65.0586C151.209 65.0586 151.693 64.9749 152.078 64.8053L152.059 64.7442C151.687 64.9079 151.215 64.9908 150.641 64.9908L150.63 65.0586ZM152.078 64.8054C152.467 64.636 152.769 64.395 152.983 64.082L152.927 64.0511C152.723 64.3491 152.435 64.5803 152.059 64.7441L152.078 64.8054ZM152.982 64.0821C153.199 63.7673 153.342 63.3938 153.413 62.9625H153.344C153.275 63.3854 153.135 63.7478 152.927 64.051L152.982 64.0821ZM153.413 62.9625C153.484 62.5313 153.464 62.1527 153.353 61.8278L153.287 61.8581C153.394 62.1719 153.414 62.5398 153.344 62.9625H153.413ZM153.353 61.8278C153.242 61.5011 153.019 61.2496 152.687 61.0731L152.646 61.1338C152.967 61.3045 153.18 61.5459 153.287 61.8581L153.353 61.8278ZM152.687 61.0732C152.355 60.8929 151.895 60.804 151.308 60.804L151.297 60.8718C151.878 60.8718 152.326 60.9599 152.646 61.1337L152.687 61.0732ZM151.308 60.804H149.01L148.999 60.8718H151.297L151.308 60.804ZM148.97 60.8379L147.405 70.3572H147.474L149.039 60.8379H148.97ZM147.445 70.3233H146.138L146.127 70.3911H147.434L147.445 70.3233ZM151.969 65.5826L153.838 70.3735L153.904 70.3409L152.034 65.55L151.969 65.5826ZM153.877 70.3233H152.358L152.347 70.3911H153.866L153.877 70.3233ZM152.386 70.3411L150.558 65.5502L150.493 65.5824L152.32 70.3733L152.386 70.3411ZM150.52 65.6002H151.996L152.007 65.5324H150.531L150.52 65.6002ZM162.864 59.6922H162.898L162.904 59.6583H162.869L162.864 59.6922ZM161.111 70.3572L161.105 70.3911H161.139L161.145 70.3572H161.111ZM159.803 70.3572H159.769L159.763 70.3911H159.798L159.803 70.3572ZM161.556 59.6922L161.562 59.6583H161.528L161.522 59.6922H161.556ZM162.829 59.6922L161.076 70.3572H161.145L162.898 59.6922H162.829ZM161.116 70.3233H159.809L159.798 70.3911H161.105L161.116 70.3233ZM159.838 70.3572L161.591 59.6922H161.522L159.769 70.3572H159.838ZM161.551 59.7261H162.858L162.869 59.6583H161.562L161.551 59.7261ZM176.797 67.9409L176.769 67.9259L176.797 67.9409ZM174.794 69.8365L174.807 69.8652L174.794 69.8365ZM169.88 69.8365L169.857 69.8652L169.88 69.8365ZM168.5 67.9409L168.533 67.9259L168.5 67.9409ZM169.458 62.1085L169.43 62.0935L169.458 62.1085ZM176.375 60.213L176.398 60.1843L176.375 60.213ZM177.756 62.1085L177.723 62.1236L177.756 62.1085ZM176.543 62.6865L176.51 62.7012L176.51 62.7014L176.543 62.6865ZM175.521 61.2441L175.498 61.2728L175.498 61.2728L175.521 61.2441ZM171.973 61.2441L171.959 61.2153L171.959 61.2153L171.973 61.2441ZM170.476 62.6865L170.447 62.6717L170.447 62.6719L170.476 62.6865ZM169.707 67.3629L169.674 67.3776L169.674 67.3777L169.707 67.3629ZM170.73 68.8054L170.707 68.8341L170.707 68.8341L170.73 68.8054ZM174.278 68.8054L174.264 68.7766L174.264 68.7767L174.278 68.8054ZM175.775 67.3629L175.746 67.3481L175.746 67.3482L175.775 67.3629ZM177.859 65.0247C177.675 66.1455 177.311 67.1122 176.769 67.9259L176.826 67.956C177.375 67.131 177.742 66.1536 177.928 65.0247H177.859ZM176.769 67.9259C176.227 68.7401 175.564 69.367 174.78 69.8078L174.807 69.8652C175.604 69.4172 176.276 68.7803 176.826 67.956L176.769 67.9259ZM174.78 69.8078C173.997 70.2485 173.148 70.4691 172.233 70.4691L172.222 70.5369C173.148 70.5369 174.01 70.3132 174.807 69.8652L174.78 69.8078ZM172.233 70.4691C171.318 70.4691 170.542 70.2485 169.903 69.8078L169.857 69.8652C170.507 70.3132 171.295 70.5369 172.222 70.5369L172.233 70.4691ZM169.903 69.8078C169.265 69.367 168.808 68.7401 168.533 67.9259L168.466 67.956C168.745 68.7803 169.208 69.4172 169.857 69.8652L169.903 69.8078ZM168.533 67.9259C168.258 67.1122 168.212 66.1455 168.396 65.0247H168.328C168.142 66.1536 168.188 67.131 168.466 67.956L168.533 67.9259ZM168.396 65.0247C168.581 63.9039 168.944 62.9372 169.486 62.1236L169.43 62.0935C168.88 62.9184 168.513 63.8958 168.328 65.0247H168.396ZM169.486 62.1236C170.029 61.3093 170.692 60.6824 171.476 60.2417L171.449 60.1843C170.652 60.6323 169.979 61.2691 169.43 62.0935L169.486 62.1236ZM171.476 60.2417C172.259 59.801 173.108 59.5803 174.023 59.5803L174.034 59.5125C173.107 59.5125 172.245 59.7362 171.449 60.1843L171.476 60.2417ZM174.023 59.5803C174.938 59.5803 175.714 59.801 176.352 60.2417L176.398 60.1843C175.749 59.7362 174.961 59.5125 174.034 59.5125L174.023 59.5803ZM176.352 60.2417C176.991 60.6824 177.448 61.3093 177.723 62.1236L177.789 62.0935C177.511 61.2691 177.048 60.6323 176.398 60.1843L176.352 60.2417ZM177.723 62.1236C177.997 62.9372 178.043 63.9039 177.859 65.0247H177.928C178.113 63.8958 178.068 62.9184 177.789 62.0935L177.723 62.1236ZM176.663 65.0247C176.815 64.0976 176.787 63.3128 176.577 62.6717L176.51 62.7014C176.717 63.3309 176.745 64.1049 176.594 65.0247H176.663ZM176.577 62.6719C176.37 62.0316 176.026 61.5455 175.543 61.2153L175.498 61.2728C175.969 61.5953 176.307 62.0709 176.51 62.7012L176.577 62.6719ZM175.543 61.2153C175.065 60.8854 174.495 60.7207 173.835 60.7207L173.824 60.7884C174.472 60.7884 175.029 60.95 175.498 61.2728L175.543 61.2153ZM173.835 60.7207C173.175 60.7207 172.55 60.8854 171.959 61.2153L171.986 61.2728C172.564 60.95 173.177 60.7884 173.824 60.7884L173.835 60.7207ZM171.959 61.2153C171.371 61.5455 170.868 62.0316 170.447 62.6717L170.504 62.7014C170.918 62.0709 171.412 61.5953 171.986 61.2728L171.959 61.2153ZM170.447 62.6719C170.03 63.3129 169.745 64.0977 169.593 65.0247H169.662C169.813 64.1048 170.094 63.3308 170.504 62.7012L170.447 62.6719ZM169.593 65.0247C169.441 65.9518 169.467 66.7365 169.674 67.3776L169.74 67.3482C169.537 66.7187 169.51 65.9446 169.662 65.0247H169.593ZM169.674 67.3777C169.884 68.0179 170.228 68.5039 170.707 68.8341L170.753 68.7767C170.285 68.4542 169.947 67.9785 169.74 67.3481L169.674 67.3777ZM170.707 68.8341C171.189 69.164 171.761 69.3288 172.42 69.3288L172.431 69.261C171.784 69.261 171.225 69.0994 170.753 68.7766L170.707 68.8341ZM172.42 69.3288C173.08 69.3288 173.704 69.164 174.291 68.8341L174.264 68.7767C173.69 69.0994 173.079 69.261 172.431 69.261L172.42 69.3288ZM174.291 68.8341C174.882 68.5039 175.386 68.0178 175.803 67.3776L175.746 67.3482C175.336 67.9786 174.842 68.4541 174.264 68.7766L174.291 68.8341ZM175.803 67.3777C176.224 66.7366 176.51 65.9518 176.663 65.0247H176.594C176.443 65.9446 176.16 66.7186 175.746 67.3481L175.803 67.3777ZM187.566 70.3572H187.532L187.526 70.3911H187.56L187.566 70.3572ZM189.319 59.6922L189.324 59.6583H189.29L189.285 59.6922H189.319ZM194.97 60.1453L194.948 60.1747L194.948 60.1749L194.97 60.1453ZM195.972 61.3586L195.939 61.3739L195.972 61.3586ZM195.41 64.78L195.382 64.7648L195.382 64.765L195.41 64.78ZM194.016 66.0089L194.028 66.0384L194.029 66.0383L194.016 66.0089ZM189.261 66.462H189.226L189.221 66.4959H189.255L189.261 66.462ZM189.449 65.3163L189.454 65.2824H189.42L189.415 65.3163H189.449ZM193.467 65.0195L193.455 64.9901L193.467 65.0195ZM194.364 64.2175L194.335 64.2031L194.335 64.2033L194.364 64.2175ZM194.741 61.921L194.708 61.9353L194.708 61.9356L194.741 61.921ZM194.101 61.1295L194.08 61.1591L194.08 61.1592L194.101 61.1295ZM190.438 60.8379L190.444 60.804H190.409L190.404 60.8379H190.438ZM188.873 70.3572L188.868 70.3911H188.902L188.908 70.3572H188.873ZM187.6 70.3572L189.353 59.6922H189.285L187.532 70.3572H187.6ZM189.313 59.7261H192.961L192.973 59.6583H189.324L189.313 59.7261ZM192.961 59.7261C193.805 59.7261 194.466 59.8765 194.948 60.1747L194.991 60.1158C194.497 59.81 193.823 59.6583 192.973 59.6583L192.961 59.7261ZM194.948 60.1749C195.435 60.4704 195.765 60.87 195.939 61.3739L196.005 61.3434C195.827 60.8266 195.488 60.4173 194.991 60.1157L194.948 60.1749ZM195.939 61.3739C196.113 61.879 196.15 62.4431 196.047 63.0667H196.116C196.22 62.4336 196.183 61.8589 196.005 61.3434L195.939 61.3739ZM196.047 63.0667C195.945 63.6903 195.723 64.2561 195.382 64.7648L195.438 64.7951C195.786 64.2762 196.012 63.6998 196.116 63.0667H196.047ZM195.382 64.765C195.045 65.2723 194.586 65.6772 194.004 65.9796L194.029 66.0383C194.623 65.7297 195.093 65.3152 195.438 64.7949L195.382 64.765ZM194.004 65.9795C193.424 66.2778 192.717 66.4281 191.881 66.4281L191.87 66.4959C192.714 66.4959 193.434 66.3442 194.028 66.0384L194.004 65.9795ZM191.881 66.4281H189.266L189.255 66.4959H191.87L191.881 66.4281ZM189.295 66.462L189.483 65.3163H189.415L189.226 66.462H189.295ZM189.443 65.3502H192.016L192.027 65.2824H189.454L189.443 65.3502ZM192.016 65.3502C192.599 65.3502 193.088 65.2507 193.479 65.0489L193.455 64.9901C193.079 65.184 192.603 65.2824 192.027 65.2824L192.016 65.3502ZM193.479 65.0489C193.87 64.8479 194.174 64.5754 194.392 64.2318L194.335 64.2033C194.126 64.5332 193.833 64.7954 193.455 64.9901L193.479 65.0489ZM194.392 64.2319C194.613 63.8866 194.759 63.498 194.83 63.0667H194.761C194.691 63.4894 194.549 63.868 194.335 64.2031L194.392 64.2319ZM194.83 63.0667C194.9 62.6354 194.882 62.2484 194.774 61.9065L194.708 61.9356C194.812 62.2671 194.83 62.644 194.761 63.0667H194.83ZM194.774 61.9068C194.67 61.5629 194.452 61.2939 194.123 61.0997L194.08 61.1592C194.398 61.347 194.607 61.6056 194.708 61.9353L194.774 61.9068ZM194.123 61.0999C193.794 60.9017 193.332 60.804 192.742 60.804L192.731 60.8718C193.314 60.8718 193.763 60.9685 194.08 61.1591L194.123 61.0999ZM192.742 60.804H190.444L190.432 60.8718H192.731L192.742 60.804ZM190.404 60.8379L188.839 70.3572H188.908L190.472 60.8379H190.404ZM188.879 70.3233H187.571L187.56 70.3911H188.868L188.879 70.3233ZM196.989 70.3572H196.955L196.949 70.3911H196.984L196.989 70.3572ZM198.742 59.6922L198.748 59.6583H198.714L198.708 59.6922H198.742ZM205.258 59.6922H205.293L205.298 59.6583H205.264L205.258 59.6922ZM205.07 60.8379L205.064 60.8718H205.099L205.104 60.8379H205.07ZM199.861 60.8379L199.867 60.804H199.833L199.827 60.8379H199.861ZM199.269 64.4415H199.235L199.229 64.4754H199.263L199.269 64.4415ZM204.14 64.4415H204.175L204.18 64.4076H204.146L204.14 64.4415ZM203.952 65.5871L203.946 65.621H203.981L203.986 65.5871H203.952ZM199.081 65.5871L199.086 65.5532H199.052L199.046 65.5871H199.081ZM198.485 69.2116H198.451L198.445 69.2454H198.479L198.485 69.2116ZM203.778 69.2116H203.812L203.818 69.1777H203.783L203.778 69.2116ZM203.59 70.3572L203.584 70.3911H203.618L203.624 70.3572H203.59ZM197.024 70.3572L198.777 59.6922H198.708L196.955 70.3572H197.024ZM198.737 59.7261H205.253L205.264 59.6583H198.748L198.737 59.7261ZM205.224 59.6922L205.036 60.8379H205.104L205.293 59.6922H205.224ZM205.076 60.804H199.867L199.856 60.8718H205.064L205.076 60.804ZM199.827 60.8379L199.235 64.4415H199.303L199.896 60.8379H199.827ZM199.263 64.4754H204.135L204.146 64.4076H199.275L199.263 64.4754ZM204.106 64.4415L203.918 65.5871H203.986L204.175 64.4415H204.106ZM203.957 65.5532H199.086L199.075 65.621H203.946L203.957 65.5532ZM199.046 65.5871L198.451 69.2116H198.519L199.115 65.5871H199.046ZM198.479 69.2454H203.772L203.783 69.1777H198.491L198.479 69.2454ZM203.744 69.2116L203.555 70.3572H203.624L203.812 69.2116H203.744ZM203.595 70.3233H196.995L196.984 70.3911H203.584L203.595 70.3233ZM210.037 70.3572H210.003L209.997 70.3911H210.031L210.037 70.3572ZM211.79 59.6922L211.796 59.6583H211.761L211.756 59.6922H211.79ZM213.097 59.6922H213.132L213.137 59.6583H213.103L213.097 59.6922ZM211.533 69.2116H211.498L211.493 69.2454H211.527L211.533 69.2116ZM216.551 69.2116H216.586L216.591 69.1777H216.557L216.551 69.2116ZM216.363 70.3572L216.358 70.3911H216.392L216.397 70.3572H216.363ZM210.071 70.3572L211.824 59.6922H211.756L210.003 70.3572H210.071ZM211.784 59.7261H213.092L213.103 59.6583H211.796L211.784 59.7261ZM213.063 59.6922L211.498 69.2116H211.567L213.132 59.6922H213.063ZM211.527 69.2454H216.546L216.557 69.1777H211.538L211.527 69.2454ZM216.517 69.2116L216.329 70.3572H216.397L216.586 69.2116H216.517ZM216.369 70.3233H210.043L210.031 70.3911H216.358L216.369 70.3233ZM223.006 70.3572L223 70.3911H223.024L223.036 70.3685L223.006 70.3572ZM221.635 70.3572L221.605 70.3455L221.58 70.3911H221.629L221.635 70.3572ZM227.352 59.6922L227.358 59.6583H227.334L227.322 59.6805L227.352 59.6922ZM228.702 59.6922L228.736 59.6805L228.732 59.6583H228.708L228.702 59.6922ZM230.913 70.3572L230.908 70.3911H230.957L230.947 70.3455L230.913 70.3572ZM229.543 70.3572L229.509 70.3685L229.513 70.3911H229.537L229.543 70.3572ZM227.792 61.3794L227.826 61.3681L227.822 61.3456H227.798L227.792 61.3794ZM227.708 61.3794L227.713 61.3456H227.689L227.677 61.3681L227.708 61.3794ZM224.197 66.1912L224.202 66.1573H224.168L224.162 66.1912H224.197ZM229.721 66.1912H229.756L229.761 66.1573H229.727L229.721 66.1912ZM229.533 67.3369L229.528 67.3707H229.562L229.567 67.3369H229.533ZM224.008 67.3369H223.974L223.968 67.3707H224.003L224.008 67.3369ZM223.011 70.3233H221.641L221.629 70.3911H223L223.011 70.3233ZM221.665 70.3689L227.383 59.7039L227.322 59.6805L221.605 70.3455L221.665 70.3689ZM227.347 59.7261H228.696L228.708 59.6583H227.358L227.347 59.7261ZM228.668 59.7039L230.879 70.3689L230.947 70.3455L228.736 59.6805L228.668 59.7039ZM230.919 70.3233H229.548L229.537 70.3911H230.908L230.919 70.3233ZM229.577 70.3459L227.826 61.3681L227.758 61.3908L229.509 70.3685L229.577 70.3459ZM227.798 61.3456H227.713L227.702 61.4133H227.786L227.798 61.3456ZM227.677 61.3681L222.975 70.3459L223.036 70.3685L227.738 61.3908L227.677 61.3681ZM224.191 66.2251H229.716L229.727 66.1573H224.202L224.191 66.2251ZM229.687 66.1912L229.499 67.3369H229.567L229.756 66.1912H229.687ZM229.539 67.303H224.014L224.003 67.3707H229.528L229.539 67.303ZM224.043 67.3369L224.231 66.1912H224.162L223.974 67.3369H224.043Z" fill="white"/>
</g>
<g filter="url(#filter3_d_6_327)">
<path d="M77.5994 87.52C77.3823 86.4031 77.0324 85.4023 76.5498 84.5176C76.0798 83.6219 75.4748 82.8589 74.7348 82.2285C74.006 81.5982 73.1456 81.1172 72.1535 80.7854C71.1613 80.4537 70.0465 80.2878 68.8089 80.2878C66.7797 80.2878 64.8642 80.8075 63.0626 81.847C61.261 82.8865 59.733 84.4181 58.4786 86.4418C57.2242 88.4655 56.3984 90.9482 56.0012 93.8897C55.604 96.8313 55.765 99.3139 56.4841 101.338C57.2031 103.361 58.3399 104.893 59.8942 105.932C61.4486 106.972 63.285 107.492 65.4034 107.492C67.3657 107.492 69.1499 107.077 70.7559 106.248C72.3746 105.407 73.7051 104.224 74.7473 102.698C75.8022 101.161 76.47 99.3526 76.7507 97.2736L77.986 97.539H67.6838L68.1765 93.8897H81.2215L80.7287 97.539C80.351 100.337 79.4204 102.77 77.9371 104.838C76.4649 106.906 74.5982 108.509 72.3372 109.648C70.0888 110.776 67.6043 111.34 64.8838 111.34C61.8511 111.34 59.282 110.632 57.1763 109.217C55.0817 107.801 53.5695 105.789 52.6397 103.179C51.7211 100.569 51.5036 97.4727 51.9874 93.8897C52.3502 91.2025 53.0388 88.7862 54.0532 86.6409C55.0802 84.4845 56.365 82.6488 57.9075 81.1338C59.45 79.6187 61.19 78.4576 63.1275 77.6503C65.065 76.8431 67.132 76.4394 69.3285 76.4394C71.1347 76.4394 72.7817 76.7104 74.2695 77.2522C75.7699 77.783 77.0669 78.5405 78.1605 79.5247C79.2667 80.4979 80.1405 81.6646 80.7819 83.0248C81.4248 84.3739 81.7911 85.8723 81.8808 87.52H77.5994ZM86.0317 110.876L90.6185 76.9039H102.192C104.868 76.9039 107.003 77.3573 108.598 78.2641C110.194 79.1598 111.298 80.3928 111.911 81.9631C112.524 83.5334 112.696 85.3194 112.425 87.321C112.155 89.3226 111.503 91.0974 110.469 92.6456C109.435 94.1938 108.005 95.4102 106.18 96.2949C104.356 97.1685 102.117 97.6054 99.4636 97.6054H90.0979L90.5996 93.8897H99.8315C101.66 93.8897 103.168 93.6243 104.354 93.0935C105.552 92.5627 106.467 91.8107 107.101 90.8376C107.746 89.8534 108.161 88.6812 108.345 87.321C108.528 85.9608 108.432 84.772 108.057 83.7546C107.681 82.7372 106.968 81.9521 105.916 81.3992C104.866 80.8352 103.416 80.5532 101.565 80.5532H94.2735L90.1793 110.876H86.0317ZM104.214 95.6148L110.583 110.876H105.766L99.5316 95.6148H104.214ZM117.561 110.876H113.213L130.376 76.9039H134.658L142.648 110.876H138.299L131.925 82.2783H131.658L117.561 110.876ZM120.958 97.6054H138.486L137.993 101.255H120.466L120.958 97.6054ZM177.088 87.52H172.941C172.855 86.3368 172.566 85.2973 172.074 84.4015C171.593 83.5058 170.958 82.7538 170.171 82.1456C169.396 81.5263 168.505 81.0619 167.499 80.7522C166.493 80.4426 165.421 80.2878 164.284 80.2878C162.21 80.2878 160.261 80.8075 158.437 81.847C156.624 82.8865 155.085 84.4181 153.82 86.4418C152.565 88.4655 151.74 90.9482 151.342 93.8897C150.945 96.8313 151.101 99.3139 151.808 101.338C152.528 103.361 153.653 104.893 155.185 105.932C156.728 106.972 158.537 107.492 160.611 107.492C161.748 107.492 162.862 107.337 163.951 107.027C165.041 106.718 166.057 106.259 166.997 105.65C167.95 105.031 168.789 104.274 169.512 103.378C170.247 102.471 170.817 101.432 171.22 100.259H175.368C174.821 101.996 174.043 103.549 173.033 104.921C172.023 106.292 170.839 107.458 169.483 108.421C168.128 109.372 166.653 110.096 165.059 110.594C163.475 111.091 161.819 111.34 160.091 111.34C157.17 111.34 154.668 110.632 152.584 109.217C150.501 107.801 148.983 105.789 148.031 103.179C147.079 100.569 146.845 97.4727 147.329 93.8897C147.812 90.3068 148.883 87.2104 150.539 84.6006C152.196 81.9908 154.258 79.9781 156.723 78.5627C159.189 77.1472 161.882 76.4394 164.803 76.4394C166.532 76.4394 168.12 76.6882 169.569 77.1859C171.03 77.6835 172.308 78.4134 173.405 79.3755C174.503 80.3265 175.372 81.4876 176.012 82.8589C176.653 84.2191 177.012 85.7728 177.088 87.52ZM158.397 111.008H161.675L161.228 112.335C162.08 112.468 162.828 112.827 163.474 113.413C164.118 114.011 164.353 114.956 164.178 116.25C163.985 117.676 163.232 118.838 161.918 119.733C160.614 120.64 158.808 121.094 156.5 121.094L156.715 118.506C157.752 118.506 158.633 118.34 159.358 118.008C160.093 117.688 160.511 117.146 160.614 116.383C160.717 115.62 160.503 115.1 159.972 114.823C159.441 114.547 158.546 114.359 157.289 114.259L158.397 111.008ZM182.042 110.876H177.693L194.857 76.9039H199.138L207.128 110.876H202.78L196.406 82.2783H196.138L182.042 110.876ZM185.439 97.6054H202.966L202.473 101.255H184.946L185.439 97.6054Z" fill="white"/>
<path d="M77.5994 87.52L77.5687 87.5296L77.5728 87.5507H77.5953L77.5994 87.52ZM76.5498 84.5176L76.5216 84.5344L76.5218 84.5348L76.5498 84.5176ZM74.7348 82.2285L74.7125 82.2527L74.7127 82.2528L74.7348 82.2285ZM72.1535 80.7854L72.1669 80.7562L72.1669 80.7562L72.1535 80.7854ZM58.4786 86.4418L58.5046 86.4551L58.5046 86.4551L58.4786 86.4418ZM56.4841 101.338L56.4544 101.351L56.4544 101.351L56.4841 101.338ZM70.7559 106.248L70.7674 106.274L70.7675 106.274L70.7559 106.248ZM74.7473 102.698L74.7222 102.683L74.7221 102.683L74.7473 102.698ZM76.7507 97.2736L76.7612 97.2436L76.7249 97.2358L76.7198 97.2736H76.7507ZM77.986 97.539L77.9818 97.5697H78.2788L77.9964 97.509L77.986 97.539ZM67.6838 97.539H67.6529L67.6487 97.5697H67.6796L67.6838 97.539ZM68.1765 93.8897L68.1806 93.859H68.1497L68.1456 93.8897H68.1765ZM81.2215 93.8897H81.2524L81.2565 93.859H81.2256L81.2215 93.8897ZM77.9371 104.838L77.9124 104.822L77.9123 104.822L77.9371 104.838ZM72.3372 109.648L72.3483 109.675L72.3483 109.675L72.3372 109.648ZM57.1763 109.217L57.1564 109.243L57.1564 109.243L57.1763 109.217ZM52.6397 103.179L52.6101 103.192L52.6101 103.192L52.6397 103.179ZM54.0532 86.6409L54.0252 86.631L54.0252 86.6311L54.0532 86.6409ZM57.9075 81.1338L57.928 81.154L57.928 81.154L57.9075 81.1338ZM74.2695 77.2522L74.2554 77.2812L74.2556 77.2813L74.2695 77.2522ZM78.1605 79.5247L78.1378 79.5486L78.138 79.5488L78.1605 79.5247ZM80.7819 83.0248L80.7533 83.0406L80.7533 83.0407L80.7819 83.0248ZM81.8808 87.52L81.8767 87.5507H81.9139L81.912 87.5144L81.8808 87.52ZM77.6301 87.5105C77.4125 86.3912 77.0617 85.3878 76.5777 84.5005L76.5218 84.5348C77.003 85.4169 77.3521 86.4151 77.5687 87.5296L77.6301 87.5105ZM76.5779 84.5009C76.1065 83.6024 75.4995 82.8368 74.757 82.2042L74.7127 82.2528C75.4501 82.881 76.0531 83.6415 76.5216 84.5344L76.5779 84.5009ZM74.7571 82.2044C74.0256 81.5717 73.1621 81.089 72.1669 80.7562L72.14 80.8146C73.129 81.1453 73.9864 81.6247 74.7125 82.2527L74.7571 82.2044ZM72.1669 80.7562C71.1715 80.4234 70.0534 80.2571 68.813 80.2571L68.8047 80.3184C70.0396 80.3184 71.1512 80.4839 72.14 80.8146L72.1669 80.7562ZM68.813 80.2571C66.7782 80.2571 64.8568 80.7784 63.0496 81.8211L63.0756 81.873C64.8717 80.8367 66.7812 80.3184 68.8047 80.3184L68.813 80.2571ZM63.0496 81.8211C61.2419 82.8641 59.7096 84.4005 58.4525 86.4285L58.5046 86.4551C59.7563 84.4358 61.2801 82.9089 63.0756 81.873L63.0496 81.8211ZM58.4525 86.4285C57.1948 88.4575 56.3679 90.9449 55.9703 93.8897H56.0321C56.4289 90.9514 57.2535 88.4736 58.5046 86.4551L58.4525 86.4285ZM55.9703 93.8897C55.5727 96.8345 55.7335 99.322 56.4544 101.351L56.5137 101.324C55.7965 99.3057 55.6354 96.828 56.0321 93.8897H55.9703ZM56.4544 101.351C57.1751 103.379 58.3149 104.916 59.8744 105.958L59.914 105.906C58.3648 104.87 57.2312 103.343 56.5137 101.324L56.4544 101.351ZM59.8744 105.958C61.4336 107.001 63.2755 107.522 65.3993 107.522L65.4076 107.461C63.2945 107.461 61.4636 106.943 59.914 105.906L59.8744 105.958ZM65.3993 107.522C67.3661 107.522 69.1558 107.107 70.7674 106.274L70.7444 106.221C69.1441 107.047 67.3654 107.461 65.4076 107.461L65.3993 107.522ZM70.7675 106.274C72.3917 105.431 73.7268 104.243 74.7725 102.712L74.7221 102.683C73.6833 104.204 72.3575 105.383 70.7444 106.221L70.7675 106.274ZM74.7725 102.712C75.831 101.17 76.5004 99.3568 76.7817 97.2736H76.7198C76.4397 99.3484 75.7735 101.151 74.7222 102.683L74.7725 102.712ZM76.7403 97.3036L77.9755 97.569L77.9964 97.509L76.7612 97.2436L76.7403 97.3036ZM77.9901 97.5083H67.6879L67.6796 97.5697H77.9818L77.9901 97.5083ZM67.7147 97.539L68.2074 93.8897H68.1456L67.6529 97.539H67.7147ZM68.1724 93.9204H81.2173L81.2256 93.859H68.1806L68.1724 93.9204ZM81.1906 93.8897L80.6978 97.539H80.7597L81.2524 93.8897H81.1906ZM80.6978 97.539C80.3207 100.332 79.3918 102.76 77.9124 104.822L77.9618 104.853C79.449 102.78 80.3813 100.341 80.7597 97.539H80.6978ZM77.9123 104.822C76.4436 106.885 74.5817 108.485 72.326 109.621L72.3483 109.675C74.6148 108.533 76.4861 106.926 77.9618 104.853L77.9123 104.822ZM72.3261 109.621C70.0831 110.746 67.604 111.309 64.888 111.309L64.8797 111.371C67.6046 111.371 70.0944 110.806 72.3483 109.675L72.3261 109.621ZM64.888 111.309C61.8603 111.309 59.2968 110.603 57.1961 109.191L57.1564 109.243C59.2671 110.662 61.8419 111.371 64.8797 111.371L64.888 111.309ZM57.1962 109.191C55.1065 107.779 53.5975 105.77 52.6693 103.165L52.6101 103.192C53.5416 105.807 55.0569 107.824 57.1564 109.243L57.1962 109.191ZM52.6694 103.165C51.7525 100.561 51.535 97.4691 52.0183 93.8897H51.9564C51.4722 97.4762 51.6896 100.577 52.6101 103.192L52.6694 103.165ZM52.0183 93.8897C52.3807 91.2052 53.0685 88.7923 54.0812 86.6506L54.0252 86.6311C53.0091 88.7801 52.3196 91.1998 51.9564 93.8897H52.0183ZM54.0811 86.6507C55.1066 84.4976 56.389 82.6656 57.928 81.154L57.8869 81.1135C56.341 82.632 55.0538 84.4713 54.0252 86.631L54.0811 86.6507ZM57.928 81.154C59.4672 79.6422 61.2032 78.4838 63.1363 77.6784L63.1187 77.6223C61.1768 78.4314 59.4328 79.5952 57.8869 81.1135L57.928 81.154ZM63.1363 77.6784C65.0692 76.873 67.1318 76.4701 69.3243 76.4701L69.3326 76.4088C67.1323 76.4088 65.0608 76.8131 63.1187 77.6223L63.1363 77.6784ZM69.3243 76.4701C71.1274 76.4701 72.771 76.7406 74.2554 77.2812L74.2836 77.2233C72.7924 76.6802 71.142 76.4088 69.3326 76.4088L69.3243 76.4701ZM74.2556 77.2813C75.7529 77.811 77.0469 78.5668 78.1378 79.5486L78.1831 79.5009C77.0869 78.5143 75.7869 77.7551 74.2834 77.2232L74.2556 77.2813ZM78.138 79.5488C79.2416 80.5196 80.1133 81.6835 80.7533 83.0406L80.8105 83.0089C80.1676 81.6456 79.2918 80.4762 78.1829 79.5007L78.138 79.5488ZM80.7533 83.0407C81.3946 84.3865 81.7601 85.8814 81.8497 87.5257L81.912 87.5144C81.8221 85.8633 81.455 84.3613 80.8105 83.0088L80.7533 83.0407ZM81.885 87.4894H77.6035L77.5953 87.5507H81.8767L81.885 87.4894ZM86.0317 110.876H86.0008L85.9966 110.906H86.0276L86.0317 110.876ZM90.6185 76.9039L90.6227 76.8732H90.5918L90.5876 76.9039H90.6185ZM108.598 78.2641L108.579 78.2911L108.579 78.2912L108.598 78.2641ZM111.911 81.9631L111.882 81.9773L111.882 81.9773L111.911 81.9631ZM110.469 92.6456L110.443 92.6313L110.443 92.6313L110.469 92.6456ZM106.18 96.2949L106.19 96.3222L106.19 96.3221L106.18 96.2949ZM90.0979 97.6054H90.067L90.0629 97.636H90.0938L90.0979 97.6054ZM90.5996 93.8897L90.6038 93.859H90.5729L90.5687 93.8897H90.5996ZM104.354 93.0935L104.345 93.0658L104.345 93.0658L104.354 93.0935ZM107.101 90.8376L107.075 90.8235L107.075 90.8236L107.101 90.8376ZM105.916 81.3992L105.899 81.4265L105.899 81.4266L105.916 81.3992ZM94.2735 80.5532L94.2776 80.5225H94.2467L94.2425 80.5532H94.2735ZM90.1793 110.876L90.1752 110.906H90.2061L90.2103 110.876H90.1793ZM104.214 95.6148L104.244 95.6001L104.237 95.5842H104.219L104.214 95.6148ZM110.583 110.876L110.579 110.906H110.631L110.612 110.861L110.583 110.876ZM105.766 110.876L105.737 110.89L105.744 110.906H105.762L105.766 110.876ZM99.5316 95.6148L99.5358 95.5842H99.484L99.5025 95.6294L99.5316 95.6148ZM86.0626 110.876L90.6495 76.9039H90.5876L86.0008 110.876H86.0626ZM90.6144 76.9346H102.188L102.196 76.8732H90.6227L90.6144 76.9346ZM102.188 76.9346C104.86 76.9346 106.99 77.3874 108.579 78.2911L108.616 78.237C107.016 77.3271 104.875 76.8732 102.196 76.8732L102.188 76.9346ZM108.579 78.2912C110.171 79.1843 111.271 80.413 111.882 81.9773L111.941 81.949C111.325 80.3726 110.216 79.1353 108.616 78.2369L108.579 78.2912ZM111.882 81.9773C112.493 83.5427 112.664 85.3237 112.394 87.321H112.456C112.727 85.3151 112.556 83.5242 111.941 81.949L111.882 81.9773ZM112.394 87.321C112.125 89.3183 111.474 91.0881 110.443 92.6313L110.494 92.66C111.532 91.1068 112.185 89.3268 112.456 87.321H112.394ZM110.443 92.6313C109.413 94.1735 107.989 95.3857 106.169 96.2677L106.19 96.3221C108.021 95.4348 109.456 94.2141 110.494 92.66L110.443 92.6313ZM106.169 96.2677C104.351 97.1384 102.118 97.5747 99.4677 97.5747L99.4594 97.636C102.116 97.636 104.36 97.1987 106.19 96.3222L106.169 96.2677ZM99.4677 97.5747H90.1021L90.0938 97.636H99.4594L99.4677 97.5747ZM90.1289 97.6054L90.6306 93.8897H90.5687L90.067 97.6054H90.1289ZM90.5955 93.9204H99.8273L99.8356 93.859H90.6038L90.5955 93.9204ZM99.8273 93.9204C101.658 93.9204 103.171 93.6547 104.364 93.1211L104.345 93.0658C103.164 93.5939 101.662 93.859 99.8356 93.859L99.8273 93.9204ZM104.364 93.1212C105.567 92.5879 106.489 91.8315 107.126 90.8515L107.075 90.8236C106.446 91.79 105.537 92.5375 104.345 93.0658L104.364 93.1212ZM107.126 90.8516C107.775 89.8622 108.191 88.685 108.376 87.321H108.314C108.131 88.6774 107.717 89.8445 107.075 90.8235L107.126 90.8516ZM108.376 87.321C108.56 85.9569 108.464 84.7633 108.086 83.7409L108.027 83.7683C108.401 84.7807 108.497 85.9646 108.314 87.321H108.376ZM108.086 83.7409C107.708 82.717 106.99 81.9273 105.934 81.3717L105.899 81.4266C106.945 81.9769 107.654 82.7575 108.027 83.7683L108.086 83.7409ZM105.934 81.3718C104.879 80.8049 103.423 80.5225 101.569 80.5225L101.561 80.5839C103.409 80.5839 104.854 80.8655 105.899 81.4265L105.934 81.3718ZM101.569 80.5225H94.2776L94.2693 80.5839H101.561L101.569 80.5225ZM94.2425 80.5532L90.1484 110.876H90.2103L94.3044 80.5532H94.2425ZM90.1835 110.845H86.0358L86.0276 110.906H90.1752L90.1835 110.845ZM104.185 95.6296L110.554 110.89L110.612 110.861L104.244 95.6001L104.185 95.6296ZM110.587 110.845H105.771L105.762 110.906H110.579L110.587 110.845ZM105.796 110.861L99.5608 95.6003L99.5025 95.6294L105.737 110.89L105.796 110.861ZM99.5275 95.6455H104.21L104.219 95.5842H99.5358L99.5275 95.6455ZM117.561 110.876L117.557 110.906H117.579L117.589 110.886L117.561 110.876ZM113.213 110.876L113.185 110.865L113.164 110.906H113.209L113.213 110.876ZM130.376 76.9039L130.381 76.8732H130.359L130.349 76.8933L130.376 76.9039ZM134.658 76.9039L134.688 76.8933L134.684 76.8732H134.662L134.658 76.9039ZM142.648 110.876L142.644 110.906H142.688L142.678 110.865L142.648 110.876ZM138.299 110.876L138.269 110.886L138.273 110.906H138.295L138.299 110.876ZM131.925 82.2783L131.956 82.268L131.951 82.2476H131.929L131.925 82.2783ZM131.658 82.2783L131.662 82.2476H131.64L131.63 82.268L131.658 82.2783ZM120.958 97.6054L120.963 97.5747H120.932L120.928 97.6054H120.958ZM138.486 97.6054H138.516L138.521 97.5747H138.49L138.486 97.6054ZM137.993 101.255L137.989 101.285H138.02L138.024 101.255H137.993ZM120.466 101.255H120.435L120.431 101.285H120.462L120.466 101.255ZM117.565 110.845H113.217L113.209 110.906H117.557L117.565 110.845ZM113.24 110.886L130.404 76.9145L130.349 76.8933L113.185 110.865L113.24 110.886ZM130.372 76.9346H134.654L134.662 76.8732H130.381L130.372 76.9346ZM134.627 76.9145L142.617 110.886L142.678 110.865L134.688 76.8933L134.627 76.9145ZM142.652 110.845H138.304L138.295 110.906H142.644L142.652 110.845ZM138.33 110.865L131.956 82.268L131.895 82.2886L138.269 110.886L138.33 110.865ZM131.929 82.2476H131.662L131.654 82.309H131.921L131.929 82.2476ZM131.63 82.268L117.533 110.865L117.589 110.886L131.685 82.2886L131.63 82.268ZM120.954 97.636H138.481L138.49 97.5747H120.963L120.954 97.636ZM138.455 97.6054L137.962 101.255H138.024L138.516 97.6054H138.455ZM137.997 101.224H120.47L120.462 101.285H137.989L137.997 101.224ZM120.497 101.255L120.989 97.6054H120.928L120.435 101.255H120.497ZM177.088 87.52L177.084 87.5507H177.121L177.119 87.5147L177.088 87.52ZM172.941 87.52L172.909 87.5262L172.911 87.5507H172.936L172.941 87.52ZM172.074 84.4015L172.046 84.4185L172.046 84.4188L172.074 84.4015ZM170.171 82.1456L170.149 82.1704L170.15 82.1707L170.171 82.1456ZM167.499 80.7522L167.486 80.7816L167.486 80.7816L167.499 80.7522ZM158.437 81.847L158.424 81.821L158.424 81.821L158.437 81.847ZM153.82 86.4418L153.794 86.4284L153.794 86.4285L153.82 86.4418ZM151.808 101.338L151.779 101.351L151.779 101.351L151.808 101.338ZM155.185 105.932L155.165 105.958L155.165 105.958L155.185 105.932ZM163.951 107.027L163.947 106.998L163.947 106.998L163.951 107.027ZM166.997 105.65L167.012 105.675L167.012 105.675L166.997 105.65ZM169.512 103.378L169.488 103.361L169.488 103.361L169.512 103.378ZM171.22 100.259L171.225 100.229H171.199L171.191 100.253L171.22 100.259ZM175.368 100.259L175.398 100.265L175.409 100.229H175.372L175.368 100.259ZM173.033 104.921L173.008 104.905L173.008 104.905L173.033 104.921ZM169.483 108.421L169.499 108.445L169.499 108.445L169.483 108.421ZM165.059 110.594L165.053 110.564L165.053 110.564L165.059 110.594ZM152.584 109.217L152.564 109.243L152.564 109.243L152.584 109.217ZM148.031 103.179L148.061 103.165L148.061 103.165L148.031 103.179ZM169.569 77.1859L169.556 77.215L169.556 77.215L169.569 77.1859ZM173.405 79.3755L173.382 79.3995L173.382 79.3996L173.405 79.3755ZM176.012 82.8589L175.983 82.8746L175.983 82.8747L176.012 82.8589ZM158.397 111.008L158.401 110.978H158.376L158.367 111.002L158.397 111.008ZM161.675 111.008L161.704 111.014L161.716 110.978H161.679L161.675 111.008ZM161.228 112.335L161.198 112.329L161.188 112.361L161.219 112.366L161.228 112.335ZM163.474 113.413L163.497 113.39L163.497 113.39L163.474 113.413ZM161.918 119.733L161.903 119.709L161.902 119.709L161.918 119.733ZM156.5 121.094L156.469 121.095L156.466 121.124H156.496L156.5 121.094ZM156.715 118.506L156.719 118.475H156.687L156.684 118.507L156.715 118.506ZM159.358 118.008L159.349 117.98L159.348 117.981L159.358 118.008ZM159.972 114.823L159.989 114.796L159.989 114.796L159.972 114.823ZM157.289 114.259L157.259 114.253L157.248 114.287L157.282 114.29L157.289 114.259ZM177.092 87.4894H172.945L172.936 87.5507H177.084L177.092 87.4894ZM172.972 87.5138C172.886 86.3271 172.596 85.2837 172.102 84.3843L172.046 84.4188C172.536 85.3108 172.824 86.3464 172.909 87.5262L172.972 87.5138ZM172.102 84.3845C171.619 83.4857 170.982 82.731 170.192 82.1205L170.15 82.1707C170.934 82.7767 171.566 83.5259 172.046 84.4185L172.102 84.3845ZM170.192 82.1208C169.415 81.4994 168.521 81.0334 167.512 80.7228L167.486 80.7816C168.489 81.0903 169.377 81.5532 170.149 82.1704L170.192 82.1208ZM167.512 80.7228C166.503 80.4123 165.428 80.2571 164.288 80.2571L164.28 80.3184C165.414 80.3184 166.483 80.4729 167.486 80.7816L167.512 80.7228ZM164.288 80.2571C162.209 80.2571 160.254 80.7783 158.424 81.821L158.45 81.8731C160.268 80.8367 162.211 80.3184 164.28 80.3184L164.288 80.2571ZM158.424 81.821C156.605 82.864 155.062 84.4003 153.794 86.4284L153.846 86.4552C155.109 84.4359 156.643 82.909 158.45 81.873L158.424 81.821ZM153.794 86.4285C152.536 88.4575 151.709 90.9449 151.311 93.8897H151.373C151.77 90.9514 152.595 88.4736 153.846 86.4551L153.794 86.4285ZM151.311 93.8897C150.914 96.8345 151.069 99.322 151.779 101.351L151.838 101.324C151.132 99.3058 150.977 96.828 151.373 93.8897H151.311ZM151.779 101.351C152.499 103.379 153.628 104.915 155.165 105.958L155.205 105.906C153.678 104.87 152.556 103.344 151.838 101.324L151.779 101.351ZM155.165 105.958C156.713 107.001 158.527 107.522 160.607 107.522L160.615 107.461C158.547 107.461 156.744 106.943 155.205 105.906L155.165 105.958ZM160.607 107.522C161.747 107.522 162.863 107.367 163.956 107.057L163.947 106.998C162.86 107.307 161.749 107.461 160.615 107.461L160.607 107.522ZM163.956 107.057C165.049 106.746 166.068 106.286 167.012 105.675L166.983 105.625C166.045 106.232 165.033 106.689 163.947 106.998L163.956 107.057ZM167.012 105.675C167.969 105.054 168.81 104.294 169.535 103.395L169.488 103.361C168.768 104.254 167.932 105.008 166.983 105.625L167.012 105.675ZM169.535 103.395C170.274 102.485 170.845 101.441 171.25 100.266L171.191 100.253C170.789 101.422 170.221 102.458 169.488 103.361L169.535 103.395ZM171.216 100.29H175.364L175.372 100.229H171.225L171.216 100.29ZM175.338 100.254C174.793 101.987 174.016 103.537 173.008 104.905L173.057 104.936C174.07 103.562 174.85 102.004 175.398 100.265L175.338 100.254ZM173.008 104.905C172.001 106.273 170.82 107.437 169.467 108.396L169.499 108.445C170.859 107.48 172.045 106.311 173.057 104.936L173.008 104.905ZM169.467 108.396C168.116 109.345 166.644 110.068 165.053 110.564L165.064 110.623C166.663 110.124 168.141 109.398 169.499 108.445L169.467 108.396ZM165.053 110.564C163.473 111.061 161.82 111.309 160.095 111.309L160.087 111.371C161.818 111.371 163.477 111.121 165.065 110.623L165.053 110.564ZM160.095 111.309C157.179 111.309 154.683 110.603 152.604 109.191L152.564 109.243C154.653 110.662 157.161 111.371 160.087 111.371L160.095 111.309ZM152.604 109.191C150.526 107.779 149.011 105.77 148.061 103.165L148.002 103.192C148.955 105.807 150.476 107.824 152.564 109.243L152.604 109.191ZM148.061 103.165C147.11 100.561 146.876 97.469 147.359 93.8897H147.298C146.813 97.4763 147.048 100.578 148.002 103.192L148.061 103.165ZM147.359 93.8897C147.843 90.3104 148.912 87.2189 150.565 84.6142L150.514 84.587C148.854 87.2019 147.782 90.3031 147.298 93.8897H147.359ZM150.565 84.6142C152.219 82.009 154.276 80.0008 156.736 78.5886L156.71 78.5367C154.239 79.9555 152.173 81.9726 150.514 84.587L150.565 84.6142ZM156.736 78.5886C159.196 77.1765 161.883 76.4701 164.799 76.4701L164.808 76.4088C161.881 76.4088 159.182 77.1179 156.71 78.5367L156.736 78.5886ZM164.799 76.4701C166.524 76.4701 168.11 76.7185 169.556 77.215L169.583 77.1568C168.131 76.658 166.539 76.4088 164.808 76.4088L164.799 76.4701ZM169.556 77.215C171.013 77.7116 172.288 78.4397 173.382 79.3995L173.427 79.3514C172.328 78.387 171.047 77.6555 169.583 77.1567L169.556 77.215ZM173.382 79.3996C174.478 80.3482 175.345 81.5065 175.983 82.8746L176.04 82.8432C175.399 81.4688 174.528 80.3047 173.427 79.3513L173.382 79.3996ZM175.983 82.8747C176.623 84.2313 176.981 85.7814 177.057 87.5254L177.119 87.5147C177.043 85.7642 176.683 84.2068 176.04 82.8431L175.983 82.8747ZM158.392 111.039H161.67L161.679 110.978H158.401L158.392 111.039ZM161.645 111.002L161.198 112.329L161.257 112.341L161.704 111.014L161.645 111.002ZM161.219 112.366C162.065 112.497 162.809 112.854 163.451 113.437L163.497 113.39C162.847 112.8 162.094 112.439 161.237 112.305L161.219 112.366ZM163.451 113.437C164.087 114.026 164.321 114.962 164.147 116.25H164.209C164.384 114.951 164.149 113.995 163.497 113.39L163.451 113.437ZM164.147 116.25C163.956 117.666 163.209 118.819 161.903 119.709L161.933 119.758C163.256 118.857 164.015 117.687 164.209 116.25H164.147ZM161.902 119.709C160.607 120.61 158.808 121.063 156.504 121.063L156.496 121.124C158.807 121.124 160.621 120.67 161.934 119.758L161.902 119.709ZM156.531 121.092L156.746 118.504L156.684 118.507L156.469 121.095L156.531 121.092ZM156.711 118.537C157.751 118.537 158.637 118.37 159.368 118.036L159.348 117.981C158.629 118.31 157.753 118.475 156.719 118.475L156.711 118.537ZM159.367 118.036C159.739 117.874 160.033 117.654 160.247 117.378C160.461 117.101 160.593 116.769 160.645 116.383H160.584C160.533 116.759 160.404 117.08 160.199 117.345C159.994 117.61 159.711 117.822 159.349 117.98L159.367 118.036ZM160.645 116.383C160.697 115.997 160.67 115.671 160.56 115.406C160.451 115.14 160.26 114.937 159.989 114.796L159.955 114.851C160.215 114.987 160.397 115.181 160.502 115.435C160.607 115.689 160.635 116.005 160.584 116.383H160.645ZM159.989 114.796C159.453 114.517 158.554 114.328 157.295 114.229L157.282 114.29C158.539 114.389 159.429 114.577 159.955 114.851L159.989 114.796ZM157.318 114.266L158.426 111.014L158.367 111.002L157.259 114.253L157.318 114.266ZM182.042 110.876L182.038 110.906H182.06L182.07 110.886L182.042 110.876ZM177.693 110.876L177.666 110.865L177.645 110.906H177.689L177.693 110.876ZM194.857 76.9039L194.861 76.8732H194.84L194.829 76.8933L194.857 76.9039ZM199.138 76.9039L199.169 76.8933L199.164 76.8732H199.143L199.138 76.9039ZM207.128 110.876L207.124 110.906H207.168L207.159 110.865L207.128 110.876ZM202.78 110.876L202.749 110.886L202.754 110.906H202.776L202.78 110.876ZM196.406 82.2783L196.436 82.268L196.432 82.2476H196.41L196.406 82.2783ZM196.138 82.2783L196.142 82.2476H196.121L196.111 82.268L196.138 82.2783ZM185.439 97.6054L185.443 97.5747H185.412L185.408 97.6054H185.439ZM202.966 97.6054H202.997L203.001 97.5747H202.97L202.966 97.6054ZM202.473 101.255L202.469 101.285H202.5L202.504 101.255H202.473ZM184.946 101.255H184.915L184.911 101.285H184.942L184.946 101.255ZM182.046 110.845H177.698L177.689 110.906H182.038L182.046 110.845ZM177.721 110.886L194.885 76.9145L194.829 76.8933L177.666 110.865L177.721 110.886ZM194.853 76.9346H199.134L199.143 76.8732H194.861L194.853 76.9346ZM199.108 76.9145L207.098 110.886L207.159 110.865L199.169 76.8933L199.108 76.9145ZM207.132 110.845H202.784L202.776 110.906H207.124L207.132 110.845ZM202.81 110.865L196.436 82.268L196.375 82.2886L202.749 110.886L202.81 110.865ZM196.41 82.2476H196.142L196.134 82.309H196.402L196.41 82.2476ZM196.111 82.268L182.014 110.865L182.07 110.886L196.166 82.2886L196.111 82.268ZM185.435 97.636H202.962L202.97 97.5747H185.443L185.435 97.636ZM202.935 97.6054L202.443 101.255H202.504L202.997 97.6054H202.935ZM202.478 101.224H184.951L184.942 101.285H202.469L202.478 101.224ZM184.977 101.255L185.47 97.6054H185.408L184.915 101.255H184.977Z" fill="#0B0224"/>
</g>
<defs>
<filter id="filter0_d_6_327" x="0" y="0" width="96.1331" height="118.495" filterUnits="userSpaceOnUse" color-interpolation-filters="sRGB">
<feFlood flood-opacity="0" result="BackgroundImageFix"/>
<feColorMatrix in="SourceAlpha" type="matrix" values="0 0 0 0 0 0 0 0 0 0 0 0 0 0 0 0 0 0 127 0" result="hardAlpha"/>
<feOffset dy="4"/>
<feGaussianBlur stdDeviation="2"/>
<feComposite in2="hardAlpha" operator="out"/>
<feColorMatrix type="matrix" values="0 0 0 0 0 0 0 0 0 0 0 0 0 0 0 0 0 0 0.25 0"/>
<feBlend mode="normal" in2="BackgroundImageFix" result="effect1_dropShadow_6_327"/>
<feBlend mode="normal" in="SourceGraphic" in2="effect1_dropShadow_6_327" result="shape"/>
</filter>
<filter id="filter1_d_6_327" x="54.7433" y="47.0944" width="58.1404" height="18.8586" filterUnits="userSpaceOnUse" color-interpolation-filters="sRGB">
<feFlood flood-opacity="0" result="BackgroundImageFix"/>
<feColorMatrix in="SourceAlpha" type="matrix" values="0 0 0 0 0 0 0 0 0 0 0 0 0 0 0 0 0 0 127 0" result="hardAlpha"/>
<feOffset dy="4"/>
<feGaussianBlur stdDeviation="2"/>
<feComposite in2="hardAlpha" operator="out"/>
<feColorMatrix type="matrix" values="0 0 0 0 0 0 0 0 0 0 0 0 0 0 0 0 0 0 0.25 0"/>
<feBlend mode="normal" in2="BackgroundImageFix" result="effect1_dropShadow_6_327"/>
<feBlend mode="normal" in="SourceGraphic" in2="effect1_dropShadow_6_327" result="shape"/>
</filter>
<filter id="filter2_d_6_327" x="52.7678" y="56.1927" width="184.474" height="22.3519" filterUnits="userSpaceOnUse" color-interpolation-filters="sRGB">
<feFlood flood-opacity="0" result="BackgroundImageFix"/>
<feColorMatrix in="SourceAlpha" type="matrix" values="0 0 0 0 0 0 0 0 0 0 0 0 0 0 0 0 0 0 127 0" result="hardAlpha"/>
<feOffset dy="4"/>
<feGaussianBlur stdDeviation="2"/>
<feComposite in2="hardAlpha" operator="out"/>
<feColorMatrix type="matrix" values="0 0 0 0 0 0 0 0 0 0 0 0 0 0 0 0 0 0 0.25 0"/>
<feBlend mode="normal" in2="BackgroundImageFix" result="effect1_dropShadow_6_327"/>
<feBlend mode="normal" in="SourceGraphic" in2="effect1_dropShadow_6_327" result="shape"/>
</filter>
<filter id="filter3_d_6_327" x="44.3143" y="76.4394" width="171.464" height="52.6541" filterUnits="userSpaceOnUse" color-interpolation-filters="sRGB">
<feFlood flood-opacity="0" result="BackgroundImageFix"/>
<feColorMatrix in="SourceAlpha" type="matrix" values="0 0 0 0 0 0 0 0 0 0 0 0 0 0 0 0 0 0 127 0" result="hardAlpha"/>
<feOffset dy="4"/>
<feGaussianBlur stdDeviation="2"/>
<feComposite in2="hardAlpha" operator="out"/>
<feColorMatrix type="matrix" values="0 0 0 0 0 0 0 0 0 0 0 0 0 0 0 0 0 0 0.25 0"/>
<feBlend mode="normal" in2="BackgroundImageFix" result="effect1_dropShadow_6_327"/>
<feBlend mode="normal" in="SourceGraphic" in2="effect1_dropShadow_6_327" result="shape"/>
</filter>
<radialGradient id="paint0_radial_6_327" cx="0" cy="0" r="1" gradientUnits="userSpaceOnUse" gradientTransform="translate(63.8598 23.1381) scale(74.0973 72.6707)">
<stop stop-color="#FF2323"/>
<stop offset="0.0117647" stop-color="#FF2323"/>
<stop offset="0.321569" stop-color="#E11111"/>
<stop offset="0.678431" stop-color="#C30000"/>
<stop offset="1" stop-color="#870000"/>
</radialGradient>
</defs>
</svg>
